<mxfile host="app.diagrams.net" agent="Mozilla/5.0 (Macintosh; Intel Mac OS X 10_15_7) AppleWebKit/605.1.15 (KHTML, like Gecko) Version/17.6 Safari/605.1.15" version="24.7.13">
  <diagram name="Page-1" id="-H_mtQnk-PTXWXPvYvuk">
    <mxGraphModel dx="1360" dy="1203" grid="1" gridSize="10" guides="1" tooltips="1" connect="1" arrows="1" fold="1" page="1" pageScale="1" pageWidth="1169" pageHeight="827" math="0" shadow="0">
      <root>
        <mxCell id="0" />
        <mxCell id="1" parent="0" />
        <mxCell id="8cPuCwgMG0-DC93ZxVvM-23" value="" style="rounded=1;whiteSpace=wrap;html=1;" vertex="1" parent="1">
          <mxGeometry x="880" y="380" width="270" height="210" as="geometry" />
        </mxCell>
        <mxCell id="8cPuCwgMG0-DC93ZxVvM-24" value="" style="edgeStyle=orthogonalEdgeStyle;rounded=0;orthogonalLoop=1;jettySize=auto;html=1;" edge="1" parent="1" source="8cPuCwgMG0-DC93ZxVvM-22" target="8cPuCwgMG0-DC93ZxVvM-2">
          <mxGeometry relative="1" as="geometry" />
        </mxCell>
        <mxCell id="8cPuCwgMG0-DC93ZxVvM-22" value="" style="rounded=1;whiteSpace=wrap;html=1;align=left;" vertex="1" parent="1">
          <mxGeometry x="880" y="160" width="270" height="210" as="geometry" />
        </mxCell>
        <mxCell id="zA23MoTUsTF4_91t8viU-3" value="pymongo-api" style="rounded=1;whiteSpace=wrap;html=1;" parent="1" vertex="1">
          <mxGeometry x="420" y="423" width="80" height="37" as="geometry" />
        </mxCell>
        <mxCell id="zA23MoTUsTF4_91t8viU-4" style="edgeStyle=orthogonalEdgeStyle;rounded=0;orthogonalLoop=1;jettySize=auto;html=1;exitX=1;exitY=0.5;exitDx=0;exitDy=0;entryX=0.468;entryY=1.012;entryDx=0;entryDy=0;entryPerimeter=0;" parent="1" source="zA23MoTUsTF4_91t8viU-3" target="8cPuCwgMG0-DC93ZxVvM-1" edge="1">
          <mxGeometry relative="1" as="geometry">
            <mxPoint x="720" y="390" as="targetPoint" />
          </mxGeometry>
        </mxCell>
        <mxCell id="8cPuCwgMG0-DC93ZxVvM-1" value="&lt;div style=&quot;text-align: start; background-color: rgb(255, 255, 255); font-size: 11px; line-height: 50%;&quot;&gt;&lt;pre style=&quot;font-family: &amp;quot;JetBrains Mono&amp;quot;, monospace; line-height: 50%;&quot;&gt;mongos_router -&lt;/pre&gt;&lt;pre style=&quot;font-family: &amp;quot;JetBrains Mono&amp;quot;, monospace; line-height: 50%;&quot;&gt;роутер&lt;/pre&gt;&lt;/div&gt;" style="rounded=1;whiteSpace=wrap;html=1;" vertex="1" parent="1">
          <mxGeometry x="720" y="360" width="120" height="60" as="geometry" />
        </mxCell>
        <mxCell id="8cPuCwgMG0-DC93ZxVvM-2" value="&lt;div style=&quot;text-align: start; background-color: rgb(255, 255, 255); font-size: 10px; line-height: 50%;&quot;&gt;&lt;pre style=&quot;font-family: &amp;quot;JetBrains Mono&amp;quot;, monospace; line-height: 50%;&quot;&gt;configSrv -&lt;/pre&gt;&lt;pre style=&quot;font-family: &amp;quot;JetBrains Mono&amp;quot;, monospace; line-height: 50%;&quot;&gt;конфигурационный&lt;/pre&gt;&lt;pre style=&quot;font-family: &amp;quot;JetBrains Mono&amp;quot;, monospace; line-height: 50%;&quot;&gt; сервер&lt;/pre&gt;&lt;/div&gt;" style="rounded=1;whiteSpace=wrap;html=1;" vertex="1" parent="1">
          <mxGeometry x="720" y="250" width="120" height="60" as="geometry" />
        </mxCell>
        <mxCell id="8cPuCwgMG0-DC93ZxVvM-3" value="" style="endArrow=classic;html=1;rounded=0;entryX=0.5;entryY=1;entryDx=0;entryDy=0;" edge="1" parent="1" target="8cPuCwgMG0-DC93ZxVvM-2">
          <mxGeometry width="50" height="50" relative="1" as="geometry">
            <mxPoint x="780" y="360" as="sourcePoint" />
            <mxPoint x="830" y="310" as="targetPoint" />
          </mxGeometry>
        </mxCell>
        <mxCell id="8cPuCwgMG0-DC93ZxVvM-9" value="shard1-1" style="shape=cylinder3;whiteSpace=wrap;html=1;boundedLbl=1;backgroundOutline=1;size=15;" vertex="1" parent="1">
          <mxGeometry x="910" y="240" width="60" height="80" as="geometry" />
        </mxCell>
        <mxCell id="8cPuCwgMG0-DC93ZxVvM-10" value="shard2-1" style="shape=cylinder3;whiteSpace=wrap;html=1;boundedLbl=1;backgroundOutline=1;size=15;" vertex="1" parent="1">
          <mxGeometry x="910" y="440" width="60" height="80" as="geometry" />
        </mxCell>
        <mxCell id="8cPuCwgMG0-DC93ZxVvM-14" value="" style="curved=1;endArrow=classic;html=1;rounded=0;exitX=1;exitY=0.5;exitDx=0;exitDy=0;exitPerimeter=0;" edge="1" parent="1" source="8cPuCwgMG0-DC93ZxVvM-9">
          <mxGeometry width="50" height="50" relative="1" as="geometry">
            <mxPoint x="970" y="295" as="sourcePoint" />
            <mxPoint x="1030" y="230" as="targetPoint" />
            <Array as="points">
              <mxPoint x="1000" y="280" />
              <mxPoint x="990" y="245" />
            </Array>
          </mxGeometry>
        </mxCell>
        <mxCell id="8cPuCwgMG0-DC93ZxVvM-15" value="shard1-2" style="shape=cylinder3;whiteSpace=wrap;html=1;boundedLbl=1;backgroundOutline=1;size=15;" vertex="1" parent="1">
          <mxGeometry x="1030" y="180" width="60" height="80" as="geometry" />
        </mxCell>
        <mxCell id="8cPuCwgMG0-DC93ZxVvM-16" value="" style="curved=1;endArrow=classic;html=1;rounded=0;exitX=1;exitY=0.5;exitDx=0;exitDy=0;exitPerimeter=0;entryX=0;entryY=0;entryDx=0;entryDy=27.5;entryPerimeter=0;" edge="1" parent="1" source="8cPuCwgMG0-DC93ZxVvM-9" target="8cPuCwgMG0-DC93ZxVvM-17">
          <mxGeometry width="50" height="50" relative="1" as="geometry">
            <mxPoint x="980" y="340" as="sourcePoint" />
            <mxPoint x="1040" y="320" as="targetPoint" />
            <Array as="points">
              <mxPoint x="1010" y="310" />
            </Array>
          </mxGeometry>
        </mxCell>
        <mxCell id="8cPuCwgMG0-DC93ZxVvM-17" value="shard1-3" style="shape=cylinder3;whiteSpace=wrap;html=1;boundedLbl=1;backgroundOutline=1;size=15;" vertex="1" parent="1">
          <mxGeometry x="1030" y="270" width="60" height="80" as="geometry" />
        </mxCell>
        <mxCell id="8cPuCwgMG0-DC93ZxVvM-18" value="shard2-2" style="shape=cylinder3;whiteSpace=wrap;html=1;boundedLbl=1;backgroundOutline=1;size=15;" vertex="1" parent="1">
          <mxGeometry x="1030" y="400" width="60" height="80" as="geometry" />
        </mxCell>
        <mxCell id="8cPuCwgMG0-DC93ZxVvM-19" value="shard2-3" style="shape=cylinder3;whiteSpace=wrap;html=1;boundedLbl=1;backgroundOutline=1;size=15;" vertex="1" parent="1">
          <mxGeometry x="1030" y="490" width="60" height="80" as="geometry" />
        </mxCell>
        <mxCell id="8cPuCwgMG0-DC93ZxVvM-20" value="" style="curved=1;endArrow=classic;html=1;rounded=0;" edge="1" parent="1">
          <mxGeometry width="50" height="50" relative="1" as="geometry">
            <mxPoint x="970" y="505" as="sourcePoint" />
            <mxPoint x="1030" y="440" as="targetPoint" />
            <Array as="points">
              <mxPoint x="1000" y="490" />
              <mxPoint x="990" y="455" />
            </Array>
          </mxGeometry>
        </mxCell>
        <mxCell id="8cPuCwgMG0-DC93ZxVvM-21" value="" style="curved=1;endArrow=classic;html=1;rounded=0;exitX=1;exitY=0.5;exitDx=0;exitDy=0;exitPerimeter=0;entryX=0;entryY=0;entryDx=0;entryDy=27.5;entryPerimeter=0;" edge="1" parent="1">
          <mxGeometry width="50" height="50" relative="1" as="geometry">
            <mxPoint x="970" y="510" as="sourcePoint" />
            <mxPoint x="1030" y="518" as="targetPoint" />
            <Array as="points">
              <mxPoint x="1010" y="520" />
            </Array>
          </mxGeometry>
        </mxCell>
        <mxCell id="8cPuCwgMG0-DC93ZxVvM-27" value="" style="curved=1;endArrow=classic;html=1;rounded=0;" edge="1" parent="1">
          <mxGeometry width="50" height="50" relative="1" as="geometry">
            <mxPoint x="840" y="370" as="sourcePoint" />
            <mxPoint x="880" y="320" as="targetPoint" />
            <Array as="points">
              <mxPoint x="860" y="320" />
            </Array>
          </mxGeometry>
        </mxCell>
        <mxCell id="8cPuCwgMG0-DC93ZxVvM-28" value="" style="curved=1;endArrow=classic;html=1;rounded=0;exitX=0.992;exitY=0.92;exitDx=0;exitDy=0;exitPerimeter=0;" edge="1" parent="1" source="8cPuCwgMG0-DC93ZxVvM-1">
          <mxGeometry width="50" height="50" relative="1" as="geometry">
            <mxPoint x="830" y="480" as="sourcePoint" />
            <mxPoint x="880" y="430" as="targetPoint" />
            <Array as="points">
              <mxPoint x="860" y="430" />
            </Array>
          </mxGeometry>
        </mxCell>
        <mxCell id="8cPuCwgMG0-DC93ZxVvM-30" value="redis&lt;div&gt;кэш&lt;/div&gt;" style="shape=cylinder3;whiteSpace=wrap;html=1;boundedLbl=1;backgroundOutline=1;size=15;" vertex="1" parent="1">
          <mxGeometry x="610" y="360" width="40" height="60" as="geometry" />
        </mxCell>
        <mxCell id="8cPuCwgMG0-DC93ZxVvM-33" value="Партиции" style="text;html=1;align=center;verticalAlign=middle;resizable=0;points=[];autosize=1;strokeColor=none;fillColor=none;" vertex="1" parent="1">
          <mxGeometry x="910" y="170" width="80" height="30" as="geometry" />
        </mxCell>
        <mxCell id="8cPuCwgMG0-DC93ZxVvM-34" value="Партиции" style="text;html=1;align=center;verticalAlign=middle;resizable=0;points=[];autosize=1;strokeColor=none;fillColor=none;" vertex="1" parent="1">
          <mxGeometry x="910" y="400" width="80" height="30" as="geometry" />
        </mxCell>
        <mxCell id="8cPuCwgMG0-DC93ZxVvM-39" value="" style="edgeStyle=orthogonalEdgeStyle;rounded=0;orthogonalLoop=1;jettySize=auto;html=1;entryX=0.25;entryY=0;entryDx=0;entryDy=0;" edge="1" parent="1" source="8cPuCwgMG0-DC93ZxVvM-35" target="8cPuCwgMG0-DC93ZxVvM-1">
          <mxGeometry relative="1" as="geometry" />
        </mxCell>
        <mxCell id="8cPuCwgMG0-DC93ZxVvM-35" value="pymongo-api" style="rounded=1;whiteSpace=wrap;html=1;" vertex="1" parent="1">
          <mxGeometry x="420" y="310" width="80" height="40" as="geometry" />
        </mxCell>
        <mxCell id="8cPuCwgMG0-DC93ZxVvM-36" value="" style="curved=1;endArrow=classic;html=1;rounded=0;entryX=0;entryY=0.5;entryDx=0;entryDy=0;entryPerimeter=0;exitX=1;exitY=0.5;exitDx=0;exitDy=0;" edge="1" parent="1" source="zA23MoTUsTF4_91t8viU-3" target="8cPuCwgMG0-DC93ZxVvM-30">
          <mxGeometry width="50" height="50" relative="1" as="geometry">
            <mxPoint x="530" y="380" as="sourcePoint" />
            <mxPoint x="580" y="330" as="targetPoint" />
            <Array as="points">
              <mxPoint x="580" y="410" />
            </Array>
          </mxGeometry>
        </mxCell>
        <mxCell id="8cPuCwgMG0-DC93ZxVvM-37" value="" style="curved=1;endArrow=classic;html=1;rounded=0;exitX=0.999;exitY=0.581;exitDx=0;exitDy=0;exitPerimeter=0;entryX=0;entryY=0;entryDx=0;entryDy=22.5;entryPerimeter=0;" edge="1" parent="1" source="8cPuCwgMG0-DC93ZxVvM-35" target="8cPuCwgMG0-DC93ZxVvM-30">
          <mxGeometry width="50" height="50" relative="1" as="geometry">
            <mxPoint x="540" y="390" as="sourcePoint" />
            <mxPoint x="610" y="330" as="targetPoint" />
            <Array as="points">
              <mxPoint x="550" y="348" />
            </Array>
          </mxGeometry>
        </mxCell>
        <mxCell id="8cPuCwgMG0-DC93ZxVvM-45" value="" style="edgeStyle=orthogonalEdgeStyle;rounded=0;orthogonalLoop=1;jettySize=auto;html=1;" edge="1" parent="1" source="8cPuCwgMG0-DC93ZxVvM-40" target="8cPuCwgMG0-DC93ZxVvM-43">
          <mxGeometry relative="1" as="geometry" />
        </mxCell>
        <mxCell id="8cPuCwgMG0-DC93ZxVvM-40" value="APISIX&lt;div&gt;Gateway&lt;/div&gt;" style="rounded=1;whiteSpace=wrap;html=1;" vertex="1" parent="1">
          <mxGeometry x="190" y="365" width="90" height="50" as="geometry" />
        </mxCell>
        <mxCell id="8cPuCwgMG0-DC93ZxVvM-41" value="" style="curved=1;endArrow=classic;html=1;rounded=0;entryX=0;entryY=0.5;entryDx=0;entryDy=0;exitX=1;exitY=0.5;exitDx=0;exitDy=0;" edge="1" parent="1" source="8cPuCwgMG0-DC93ZxVvM-40" target="8cPuCwgMG0-DC93ZxVvM-35">
          <mxGeometry width="50" height="50" relative="1" as="geometry">
            <mxPoint x="280" y="370" as="sourcePoint" />
            <mxPoint x="330" y="320" as="targetPoint" />
            <Array as="points">
              <mxPoint x="330" y="370" />
              <mxPoint x="350" y="330" />
            </Array>
          </mxGeometry>
        </mxCell>
        <mxCell id="8cPuCwgMG0-DC93ZxVvM-42" value="" style="curved=1;endArrow=classic;html=1;rounded=0;entryX=0;entryY=0.5;entryDx=0;entryDy=0;" edge="1" parent="1" target="zA23MoTUsTF4_91t8viU-3">
          <mxGeometry width="50" height="50" relative="1" as="geometry">
            <mxPoint x="280" y="390" as="sourcePoint" />
            <mxPoint x="330" y="340" as="targetPoint" />
            <Array as="points">
              <mxPoint x="310" y="400" />
              <mxPoint x="320" y="440" />
            </Array>
          </mxGeometry>
        </mxCell>
        <mxCell id="8cPuCwgMG0-DC93ZxVvM-43" value="Consul" style="rounded=1;whiteSpace=wrap;html=1;" vertex="1" parent="1">
          <mxGeometry x="190" y="220" width="90" height="50" as="geometry" />
        </mxCell>
        <mxCell id="8cPuCwgMG0-DC93ZxVvM-47" value="" style="endArrow=classic;html=1;rounded=0;entryX=1;entryY=1;entryDx=0;entryDy=0;exitX=0;exitY=0.25;exitDx=0;exitDy=0;" edge="1" parent="1" source="zA23MoTUsTF4_91t8viU-3" target="8cPuCwgMG0-DC93ZxVvM-43">
          <mxGeometry width="50" height="50" relative="1" as="geometry">
            <mxPoint x="420" y="423" as="sourcePoint" />
            <mxPoint x="470" y="373" as="targetPoint" />
          </mxGeometry>
        </mxCell>
        <mxCell id="8cPuCwgMG0-DC93ZxVvM-50" value="" style="endArrow=classic;html=1;rounded=0;entryX=1.033;entryY=0.64;entryDx=0;entryDy=0;entryPerimeter=0;exitX=0;exitY=0;exitDx=0;exitDy=0;" edge="1" parent="1" source="8cPuCwgMG0-DC93ZxVvM-35" target="8cPuCwgMG0-DC93ZxVvM-43">
          <mxGeometry width="50" height="50" relative="1" as="geometry">
            <mxPoint x="420" y="310" as="sourcePoint" />
            <mxPoint x="470" y="260" as="targetPoint" />
          </mxGeometry>
        </mxCell>
        <mxCell id="8cPuCwgMG0-DC93ZxVvM-51" value="" style="endArrow=none;dashed=1;html=1;dashPattern=1 3;strokeWidth=2;rounded=0;" edge="1" parent="1">
          <mxGeometry width="50" height="50" relative="1" as="geometry">
            <mxPoint x="467" y="385" as="sourcePoint" />
            <mxPoint x="447" y="385" as="targetPoint" />
            <Array as="points">
              <mxPoint x="467" y="385" />
            </Array>
          </mxGeometry>
        </mxCell>
      </root>
    </mxGraphModel>
  </diagram>
</mxfile>
